# xmcd
#
# Track frame offsets:
#	150
#	17415
#	30617
#	47416
#	66565
#	87860
#	107349
#	124837
#	139551
#	155487
#	167383
#	179550
#
# Disc length: 2597 seconds
#
# Revision: 1
# Processed by: cddbd v1.5.2PL0 Copyright (c) Steve Scherf et al.
# Submitted via: audiograbber 1.83.01
#
DISCID=900a230c
DTITLE=Various Artist - Street October 08 CD2
DYEAR=2008
DGENRE=R&B
TTITLE0=Robin Thicke Ft Mary J Blige - Magic
TTITLE1=Slakah The Beatchild - Enjoy Yourself
TTITLE2=Laura Izabor - From My Heart To Yours
TTITLE3=Nu Life - Woman Like Me
TTITLE4=Nino Bless Ft Akon - Changed Man
TTITLE5=XL Ft Sean Price - Credibility
TTITLE6=DL Incognito - Airplay
TTITLE7=Ying Yang Twinz - Swag
TTITLE8=Mojoe - My Favourite Cut
TTITLE9=Zion I - Juicy Juice
TTITLE10=MSD Ft Kase - I Want
TTITLE11=Brian Temba - Dominoes
EXTD=
EXTT0=
EXTT1=
EXTT2=
EXTT3=
EXTT4=
EXTT5=
EXTT6=
EXTT7=
EXTT8=
EXTT9=
EXTT10=
EXTT11=
PLAYORDER=
